<svg width="267" height="57" viewBox="0 0 267 57" fill="none" xmlns="http://www.w3.org/2000/svg">
<path d="M0.394531 31.2891C0.394531 28.5938 0.699219 26.0156 1.30859 23.5547C1.94141 21.0703 2.83203 18.7617 3.98047 16.6289C5.12891 14.4727 6.51172 12.5273 8.12891 10.793C9.76953 9.03516 11.5977 7.53516 13.6133 6.29297C15.6289 5.02734 17.8086 4.05469 20.1523 3.375C22.5195 2.69531 25.0039 2.35547 27.6055 2.35547C29.668 2.35547 31.4727 2.49609 33.0195 2.77734C34.5898 3.03516 35.9492 3.375 37.0977 3.79688C38.2695 4.19531 39.2422 4.64062 40.0156 5.13281C40.8125 5.625 41.4688 6.09375 41.9844 6.53906C41.9609 6.53906 41.9492 6.62109 41.9492 6.78516C41.9492 7.13672 41.9727 7.78125 42.0195 8.71875C42.0898 9.65625 42.1602 10.6992 42.2305 11.8477C42.3242 12.9961 42.3945 14.168 42.4414 15.3633C42.5117 16.5352 42.5469 17.5547 42.5469 18.4219C42.5469 18.5625 42.5 18.7266 42.4062 18.9141C42.3125 19.0781 42.0781 19.1602 41.7031 19.1602C41.4922 19.1602 41.2344 19.125 40.9297 19.0547C40.4375 18.9141 39.8164 18.5977 39.0664 18.1055C38.3164 17.5898 37.4375 17.0625 36.4297 16.5234C35.4453 15.9609 34.332 15.4688 33.0898 15.0469C31.8711 14.6016 30.5352 14.3789 29.082 14.3789C27.1602 14.3789 25.4141 14.7891 23.8438 15.6094C22.2734 16.4062 20.9375 17.5312 19.8359 18.9844C18.7344 20.4141 17.8789 22.125 17.2695 24.1172C16.6602 26.0859 16.3555 28.2305 16.3555 30.5508C16.3555 32.5898 16.543 34.5 16.918 36.2812C17.293 38.0625 17.8555 39.6094 18.6055 40.9219C19.3789 42.2109 20.3281 43.2305 21.4531 43.9805C22.5781 44.7305 23.9023 45.1055 25.4258 45.1055C26.9023 45.1055 28.5781 44.7891 30.4531 44.1562L31.2617 39.1992H24.5469C25.0625 36.3633 25.5078 34.1367 25.8828 32.5195C26.2578 30.9023 26.6094 29.6836 26.9375 28.8633C27.2656 28.043 27.6055 27.5273 27.957 27.3164C28.3086 27.1055 28.7188 27 29.1875 27H47.6797C48.2188 27 48.6055 27.0352 48.8398 27.1055C49.0977 27.1758 49.2266 27.4219 49.2266 27.8438C49.2266 28.0547 49.2031 28.3125 49.1562 28.6172C49.1094 28.8984 49.0508 29.25 48.9805 29.6719L47.2227 35.5781C47.0117 36.3281 46.8359 36.9141 46.6953 37.3359C46.5547 37.7344 46.3789 38.0391 46.168 38.25C45.957 38.4375 45.6641 38.5547 45.2891 38.6016C44.9375 38.625 44.4219 38.6367 43.7422 38.6367C43.3672 38.6367 43.1445 38.7891 43.0742 39.0938C43.0039 39.3984 42.9453 39.7148 42.8984 40.043C42.7578 41.0742 42.6172 42.1055 42.4766 43.1367C42.3359 44.1445 42.1953 45.0938 42.0547 45.9844C41.9375 46.8516 41.8086 47.625 41.668 48.3047C41.5273 48.9609 41.3867 49.4414 41.2461 49.7461C39.6523 50.7539 38.1992 51.6445 36.8867 52.418C35.5977 53.168 34.3086 53.7891 33.0195 54.2812C31.7305 54.7969 30.3711 55.1836 28.9414 55.4414C27.5117 55.6992 25.8711 55.8281 24.0195 55.8281C20.7148 55.8281 17.6211 55.2305 14.7383 54.0352C11.8555 52.8398 9.34766 51.1641 7.21484 49.0078C5.10547 46.8281 3.44141 44.2383 2.22266 41.2383C1.00391 38.2383 0.394531 34.9219 0.394531 31.2891ZM54.1133 24.2578C54.3945 21.0469 54.6172 17.8711 54.7812 14.7305C54.9688 11.5898 55.168 8.36719 55.3789 5.0625C55.4258 4.28906 55.4961 3.76172 55.5898 3.48047C55.707 3.17578 55.9766 2.97656 56.3984 2.88281C58.5781 2.48438 60.7578 2.08594 62.9375 1.6875C65.1406 1.26562 67.3438 0.714844 69.5469 0.0351562C69.6172 0.0117187 69.7227 0 69.8633 0C70.1211 0 70.25 0.117187 70.25 0.351562L65.6797 50.5547V51.1523C65.6797 51.3633 65.5977 51.5391 65.4336 51.6797C65.2695 51.7969 64.8828 51.9375 64.2734 52.1016L55.0625 55.4766C54.8047 55.5938 54.4648 55.7109 54.043 55.8281C53.6211 55.9688 53.2109 56.0391 52.8125 56.0391C52.4844 56.0391 52.1914 55.957 51.9336 55.793C51.6992 55.6289 51.582 55.3477 51.582 54.9492V54.7383C51.7695 52.3711 51.9453 50.0625 52.1094 47.8125C52.2969 45.5391 52.4844 43.1953 52.6719 40.7812C52.8828 38.3672 53.1055 35.8125 53.3398 33.1172C53.5742 30.4219 53.832 27.4688 54.1133 24.2578ZM109.449 46.9336C109.426 47.0273 109.414 47.1211 109.414 47.2148C109.414 47.2852 109.414 47.3555 109.414 47.4258C109.414 48.0117 109.508 48.5039 109.695 48.9023C109.883 49.2773 110.082 49.5938 110.293 49.8516C110.527 50.0859 110.738 50.2852 110.926 50.4492C111.113 50.5898 111.207 50.7188 111.207 50.8359C111.207 51.1641 110.855 51.4688 110.152 51.75L100.695 55.793C100.672 55.8164 100.59 55.8281 100.449 55.8281C100.262 55.8281 100.074 55.6641 99.8867 55.3359C99.6992 55.0078 99.5117 54.5859 99.3242 54.0703C99.1602 53.5781 98.9961 53.0508 98.832 52.4883C98.6914 51.9023 98.5625 51.3633 98.4453 50.8711C96.9688 52.582 95.375 53.8359 93.6641 54.6328C91.9531 55.4297 90.2539 55.8281 88.5664 55.8281C86.5977 55.8281 84.6758 55.3945 82.8008 54.5273C80.9258 53.6602 79.2617 52.4297 77.8086 50.8359C76.3555 49.2188 75.1836 47.2734 74.293 45C73.4258 42.7266 72.9922 40.1719 72.9922 37.3359C72.9922 33.9844 73.4727 30.9258 74.4336 28.1602C75.418 25.3945 76.7422 23.0156 78.4062 21.0234C80.0703 19.0312 82.0039 17.4961 84.207 16.418C86.4336 15.3164 88.7891 14.7656 91.2734 14.7656C93.0312 14.7656 94.6953 15.1289 96.2656 15.8555C97.8359 16.5586 99.3242 17.4727 100.73 18.5977C100.871 17.8945 100.953 17.332 100.977 16.9102C101 16.4883 101.047 16.1602 101.117 15.9258C101.211 15.6914 101.375 15.5391 101.609 15.4688C101.844 15.375 102.23 15.3047 102.77 15.2578C104.457 15.0234 106.133 14.8125 107.797 14.625C109.484 14.4141 111.242 14.2617 113.07 14.168L109.449 46.9336ZM98.9375 33.6797C99.1719 32.3438 99.3242 31.0898 99.3945 29.918C99.4883 28.7227 99.5586 27.6328 99.6055 26.6484C99.2305 26.3672 98.8203 26.0742 98.375 25.7695C97.9531 25.4648 97.4844 25.1836 96.9688 24.9258C96.4766 24.6445 95.9492 24.4219 95.3867 24.2578C94.8477 24.0938 94.2734 24.0117 93.6641 24.0117C92.3984 24.0117 91.332 24.4219 90.4648 25.2422C89.6211 26.0625 88.9297 27.0703 88.3906 28.2656C87.875 29.4609 87.5 30.7266 87.2656 32.0625C87.0547 33.3984 86.9492 34.582 86.9492 35.6133C86.9492 39.3164 87.4297 42.0352 88.3906 43.7695C89.375 45.4805 90.7344 46.3359 92.4688 46.3359C93.1719 46.3359 93.957 46.1367 94.8242 45.7383C95.6914 45.3398 96.5703 44.7891 97.4609 44.0859L98.9375 33.6797ZM117.605 44.2969C117.605 44.2734 117.594 44.2617 117.57 44.2617C117.57 44.2383 117.57 44.2148 117.57 44.1914C117.57 43.8867 117.734 43.7344 118.062 43.7344C118.273 43.7344 118.461 43.8164 118.625 43.9805C119.562 44.8711 120.629 45.5977 121.824 46.1602C123.043 46.7227 124.355 47.0039 125.762 47.0039C126.137 47.0039 126.57 46.9688 127.062 46.8984C127.555 46.8047 128.023 46.6641 128.469 46.4766C128.914 46.2891 129.277 46.043 129.559 45.7383C129.863 45.4102 130.016 45.0117 130.016 44.543C130.016 44.0273 129.887 43.5586 129.629 43.1367C129.371 42.6914 129.031 42.3281 128.609 42.0469C128.375 41.8828 127.965 41.6016 127.379 41.2031C126.793 40.7812 126.16 40.3359 125.48 39.8672C124.824 39.3984 124.191 38.9531 123.582 38.5312C122.996 38.1094 122.586 37.8047 122.352 37.6172C121.297 36.8203 120.453 36.0117 119.82 35.1914C119.211 34.3711 118.742 33.5273 118.414 32.6602C118.086 31.7695 117.875 30.8438 117.781 29.8828C117.688 28.9219 117.641 27.9023 117.641 26.8242C117.641 25.1836 118.074 23.6367 118.941 22.1836C119.809 20.7305 120.945 19.4531 122.352 18.3516C123.781 17.25 125.398 16.3828 127.203 15.75C129.008 15.0938 130.848 14.7656 132.723 14.7656C134.27 14.7656 135.793 15 137.293 15.4688C138.793 15.9375 140.188 16.7344 141.477 17.8594C141.594 19.3359 141.676 20.7891 141.723 22.2188C141.77 23.6484 141.84 25.1484 141.934 26.7188C141.934 27.0234 141.863 27.2344 141.723 27.3516C141.582 27.4453 141.418 27.4922 141.23 27.4922C141.066 27.4922 140.926 27.4336 140.809 27.3164C140.27 26.8008 139.719 26.2969 139.156 25.8047C138.594 25.2891 137.996 24.8438 137.363 24.4688C136.754 24.0703 136.098 23.7539 135.395 23.5195C134.691 23.2617 133.941 23.1328 133.145 23.1328C132.652 23.1328 132.16 23.1797 131.668 23.2734C131.176 23.3438 130.73 23.4961 130.332 23.7305C129.934 23.9414 129.605 24.2344 129.348 24.6094C129.113 24.9844 128.996 25.4648 128.996 26.0508C128.996 26.7305 129.078 27.3164 129.242 27.8086C129.406 28.3008 129.793 28.7812 130.402 29.25L136.941 33.6797C138.137 34.5 139.098 35.3086 139.824 36.1055C140.574 36.8789 141.16 37.6523 141.582 38.4258C142.004 39.1992 142.285 39.9727 142.426 40.7461C142.59 41.4961 142.672 42.2461 142.672 42.9961C142.672 45.1055 142.18 46.9688 141.195 48.5859C140.234 50.1797 138.98 51.5156 137.434 52.5938C135.887 53.6484 134.129 54.4453 132.16 54.9844C130.215 55.5469 128.258 55.8281 126.289 55.8281C124.789 55.8281 123.336 55.6641 121.93 55.3359C120.547 55.0312 119.258 54.5508 118.062 53.8945L117.605 44.2969ZM166.262 26.8945C165.934 29.3555 165.617 31.8164 165.312 34.2773C165.031 36.7148 164.855 39 164.785 41.1328C164.785 42.0469 164.855 42.8086 164.996 43.418C165.137 44.0273 165.336 44.5078 165.594 44.8594C165.875 45.2109 166.203 45.4688 166.578 45.6328C166.953 45.7734 167.375 45.8438 167.844 45.8438C168.594 45.8438 169.414 45.7383 170.305 45.5273C171.195 45.293 172.086 45 172.977 44.6484C173.258 44.5312 173.492 44.4492 173.68 44.4023C173.891 44.332 174.066 44.2969 174.207 44.2969C174.441 44.2969 174.594 44.4023 174.664 44.6133C174.758 44.8242 174.84 45.1992 174.91 45.7383C175.004 46.2539 175.133 46.957 175.297 47.8477C175.461 48.7383 175.73 49.8633 176.105 51.2227C176.129 51.3398 176.141 51.4453 176.141 51.5391C176.164 51.6094 176.176 51.6797 176.176 51.75C176.176 52.0781 176.047 52.3125 175.789 52.4531C175.555 52.5938 175.156 52.7578 174.594 52.9453C173.633 53.2734 172.613 53.6133 171.535 53.9648C170.48 54.293 169.426 54.5977 168.371 54.8789C167.34 55.1602 166.344 55.3828 165.383 55.5469C164.422 55.7344 163.578 55.8281 162.852 55.8281C158.938 55.8281 156.078 54.8555 154.273 52.9102C152.492 50.9648 151.602 48 151.602 44.0156C151.602 43.3359 151.625 42.6445 151.672 41.9414C151.719 41.2148 151.777 40.4648 151.848 39.6914C152.082 37.3477 152.281 35.1328 152.445 33.0469C152.633 30.9375 152.82 28.9219 153.008 27H149.316C148.051 27 147.137 26.9531 146.574 26.8594C146.012 26.7422 145.73 26.5195 145.73 26.1914C145.73 26.0977 145.848 25.8516 146.082 25.4531C146.316 25.0312 146.609 24.5391 146.961 23.9766C147.336 23.3906 147.734 22.7695 148.156 22.1133C148.578 21.457 148.977 20.8477 149.352 20.2852C149.75 19.6992 150.09 19.1953 150.371 18.7734C150.652 18.3516 150.828 18.0938 150.898 18H153.395C153.605 16.2188 153.77 14.7305 153.887 13.5352C154.027 12.3164 154.133 11.3086 154.203 10.5117C154.297 9.71484 154.379 9.10547 154.449 8.68359C154.52 8.23828 154.59 7.91016 154.66 7.69922C154.754 7.48828 154.859 7.35938 154.977 7.3125C155.117 7.24219 155.293 7.18359 155.504 7.13672C156.559 6.92578 157.578 6.73828 158.562 6.57422C159.547 6.38672 160.531 6.19922 161.516 6.01172C162.5 5.82422 163.496 5.61328 164.504 5.37891C165.535 5.12109 166.602 4.82812 167.703 4.5C167.773 4.5 167.82 4.5 167.844 4.5C167.867 4.47656 167.914 4.46484 167.984 4.46484C168.266 4.46484 168.406 4.55859 168.406 4.74609V4.81641C168.289 6.10547 168.102 7.89844 167.844 10.1953C167.609 12.4922 167.34 15.0938 167.035 18H176.457C176.645 18 176.82 18.0703 176.984 18.2109C177.172 18.3281 177.266 18.5391 177.266 18.8438C177.266 18.9609 177.125 19.3828 176.844 20.1094C176.562 20.8359 176.164 21.7852 175.648 22.957L174.383 25.8047C174.219 26.1562 174.043 26.4141 173.855 26.5781C173.691 26.7422 173.34 26.8477 172.801 26.8945H166.262ZM198.922 55.8281C195.617 55.8281 192.711 55.2891 190.203 54.2109C187.719 53.1328 185.633 51.7031 183.945 49.9219C182.258 48.1172 180.992 46.0547 180.148 43.7344C179.305 41.3906 178.883 38.9648 178.883 36.457C178.883 33.9492 179.293 31.5703 180.113 29.3203C180.934 27.0469 182.082 25.0195 183.559 23.2383C185.035 21.4336 186.805 19.9336 188.867 18.7383C190.93 17.5195 193.203 16.6992 195.688 16.2773C196.062 16.2539 196.25 16.1719 196.25 16.0312C196.25 15.7734 196.215 15.5391 196.145 15.3281C196.098 15.0938 196.074 14.8945 196.074 14.7305C196.074 14.4727 196.121 14.2969 196.215 14.2031C196.309 14.1094 196.414 14.0625 196.531 14.0625C201.008 14.0625 204.816 14.5781 207.957 15.6094C211.098 16.6172 213.652 18 215.621 19.7578C217.59 21.5156 219.02 23.5898 219.91 25.9805C220.801 28.3711 221.246 30.9375 221.246 33.6797C221.246 37.1719 220.66 40.2891 219.488 43.0312C218.316 45.7734 216.711 48.0938 214.672 49.9922C212.656 51.8906 210.289 53.332 207.57 54.3164C204.875 55.3242 201.992 55.8281 198.922 55.8281ZM192.418 36.0703C192.418 37.3359 192.547 38.5898 192.805 39.832C193.086 41.0742 193.531 42.1992 194.141 43.207C194.773 44.2148 195.594 45.0352 196.602 45.668C197.609 46.2773 198.863 46.582 200.363 46.582C201.441 46.5352 202.379 46.3008 203.176 45.8789C203.996 45.4336 204.699 44.8711 205.285 44.1914C205.871 43.4883 206.352 42.7031 206.727 41.8359C207.125 40.9688 207.43 40.0781 207.641 39.1641C207.875 38.2266 208.039 37.3125 208.133 36.4219C208.227 35.5312 208.273 34.7227 208.273 33.9961C208.273 32.7773 208.086 31.582 207.711 30.4102C207.359 29.2383 206.832 28.207 206.129 27.3164C205.426 26.4258 204.547 25.7109 203.492 25.1719C202.461 24.6094 201.266 24.3281 199.906 24.3281C198.5 24.3281 197.316 24.75 196.355 25.5938C195.395 26.4141 194.621 27.4336 194.035 28.6523C193.473 29.8711 193.062 31.1602 192.805 32.5195C192.547 33.8555 192.418 35.0391 192.418 36.0703ZM254.961 55.2656C254.703 55.3359 254.363 55.4414 253.941 55.582C253.52 55.7461 253.109 55.8281 252.711 55.8281C252.383 55.8281 252.09 55.7461 251.832 55.582C251.598 55.418 251.48 55.1367 251.48 54.7383V54.5273C251.621 53.2617 251.738 52.1953 251.832 51.3281C251.926 50.4375 252.008 49.6406 252.078 48.9375C252.172 48.2109 252.242 47.4961 252.289 46.793C252.359 46.0664 252.441 45.2344 252.535 44.2969C252.629 43.3359 252.734 42.2109 252.852 40.9219C252.992 39.6094 253.156 37.9805 253.344 36.0352C253.461 34.8398 253.566 33.6211 253.66 32.3789C253.754 31.1367 253.801 29.9883 253.801 28.9336C253.801 28.2305 253.742 27.5859 253.625 27C253.531 26.3906 253.344 25.875 253.062 25.4531C252.805 25.0078 252.441 24.668 251.973 24.4336C251.504 24.1992 250.906 24.082 250.18 24.082C249.641 24.082 248.891 24.1992 247.93 24.4336C246.992 24.668 246.055 25.0547 245.117 25.5938C244.18 26.1328 243.348 26.8477 242.621 27.7383C241.895 28.6055 241.484 29.6836 241.391 30.9727C241.25 32.707 241.121 34.1953 241.004 35.4375C240.887 36.6562 240.781 37.6992 240.688 38.5664C240.594 39.4102 240.512 40.1016 240.441 40.6406C240.395 41.1797 240.359 41.6367 240.336 42.0117C240.312 42.1055 240.277 42.3633 240.23 42.7852C240.184 43.207 240.125 43.7109 240.055 44.2969C240.008 44.8828 239.949 45.5039 239.879 46.1602C239.832 46.8164 239.773 47.4375 239.703 48.0234C239.656 48.6094 239.609 49.1133 239.562 49.5352C239.539 49.957 239.527 50.2148 239.527 50.3086C239.527 50.4961 239.527 50.6602 239.527 50.8008C239.551 50.918 239.562 51.0352 239.562 51.1523C239.562 51.3398 239.469 51.5039 239.281 51.6445C239.117 51.7617 238.73 51.9023 238.121 52.0664L228.805 55.2656C228.547 55.3594 228.207 55.4766 227.785 55.6172C227.363 55.7578 226.953 55.8281 226.555 55.8281C226.227 55.8281 225.934 55.7461 225.676 55.582C225.441 55.418 225.324 55.1367 225.324 54.7383L228.523 18.8086C228.594 18.0352 228.676 17.5078 228.77 17.2266C228.887 16.9219 229.156 16.7227 229.578 16.6289C231.711 16.207 233.902 15.7852 236.152 15.3633C238.402 14.918 240.594 14.3555 242.727 13.6758C242.914 13.6758 243.02 13.7109 243.043 13.7812C243.09 13.8281 243.113 13.9102 243.113 14.0273C243.113 14.0742 243.102 14.1445 243.078 14.2383C243.078 14.332 243.043 14.543 242.973 14.8711C242.926 15.1992 242.844 15.7031 242.727 16.3828C242.633 17.0391 242.492 17.9648 242.305 19.1602C243.922 18.2227 245.434 17.4727 246.84 16.9102C248.27 16.3242 249.605 15.8789 250.848 15.5742C252.113 15.2461 253.297 15.0352 254.398 14.9414C255.5 14.8242 256.531 14.7656 257.492 14.7656C260.797 14.7656 263.199 15.7734 264.699 17.7891C266.199 19.7812 266.949 22.7812 266.949 26.7891C266.949 27.3516 266.938 27.9375 266.914 28.5469C266.891 29.1328 266.844 29.7422 266.773 30.375L265.156 45.4922C265.039 46.4766 264.969 47.3906 264.945 48.2344C264.922 49.0547 264.91 50.0156 264.91 51.1172C264.91 51.3047 264.91 51.4688 264.91 51.6094C264.934 51.7266 264.945 51.832 264.945 51.9258C264.945 52.1367 264.852 52.3008 264.664 52.418C264.5 52.5352 264.113 52.6875 263.504 52.875L254.961 55.2656Z" fill="#313BAC"/>
</svg>
